<svg width="90" height="18" viewBox="0 0 90 18" fill="none" xmlns="http://www.w3.org/2000/svg">
<path d="M5.936 12.992C5.83333 12.992 5.72133 12.964 5.6 12.908C5.488 12.8427 5.36667 12.7727 5.236 12.698L0.686 10.024C0.574 9.94933 0.49 9.856 0.434 9.744C0.378 9.62267 0.35 9.50133 0.35 9.38C0.35 9.24933 0.378 9.128 0.434 9.016C0.49 8.89467 0.574 8.80133 0.686 8.736L5.236 6.118C5.35733 6.04333 5.46933 5.98733 5.572 5.95C5.684 5.90333 5.78667 5.88 5.88 5.88C6.06667 5.88 6.23933 5.97333 6.398 6.16C6.566 6.33733 6.65 6.524 6.65 6.72C6.65 6.81333 6.622 6.90667 6.566 7C6.51933 7.084 6.44467 7.15867 6.342 7.224L1.484 10.038L1.386 8.638L6.328 11.592C6.44 11.6573 6.51933 11.7413 6.566 11.844C6.61267 11.9373 6.636 12.0353 6.636 12.138C6.636 12.362 6.55667 12.5627 6.398 12.74C6.24867 12.908 6.09467 12.992 5.936 12.992ZM8.53147 15.876C8.3728 15.876 8.20947 15.8107 8.04147 15.68C7.87347 15.5493 7.78947 15.3813 7.78947 15.176C7.78947 15.064 7.81747 14.952 7.87347 14.84L13.5575 3.206C13.6228 3.07533 13.7115 2.97267 13.8235 2.898C13.9355 2.82333 14.0521 2.786 14.1735 2.786C14.3321 2.786 14.4908 2.85133 14.6495 2.982C14.8175 3.10333 14.9015 3.27133 14.9015 3.486C14.9015 3.598 14.8735 3.71 14.8175 3.822L9.14747 15.456C9.08214 15.5867 8.99347 15.6893 8.88147 15.764C8.7788 15.8387 8.66214 15.876 8.53147 15.876ZM16.7825 12.824C16.5958 12.824 16.4185 12.7353 16.2505 12.558C16.0918 12.3713 16.0125 12.18 16.0125 11.984C16.0125 11.8813 16.0358 11.788 16.0825 11.704C16.1385 11.62 16.2178 11.5453 16.3205 11.48L21.1785 8.666L21.2765 10.066L16.3345 7.112C16.2225 7.04667 16.1432 6.96733 16.0965 6.874C16.0498 6.77133 16.0265 6.66867 16.0265 6.566C16.0265 6.342 16.1058 6.146 16.2645 5.978C16.4232 5.80067 16.5772 5.712 16.7265 5.712C16.8292 5.712 16.9365 5.74467 17.0485 5.81C17.1698 5.866 17.2958 5.93133 17.4265 6.006L21.9765 8.68C22.0885 8.74533 22.1725 8.83867 22.2285 8.96C22.2845 9.072 22.3125 9.19333 22.3125 9.324C22.3125 9.45467 22.2845 9.58067 22.2285 9.702C22.1725 9.814 22.0885 9.90267 21.9765 9.968L17.4265 12.586C17.3052 12.6513 17.1932 12.7073 17.0905 12.754C16.9878 12.8007 16.8852 12.824 16.7825 12.824Z" fill="#FF4B4B"/>
<path d="M29.548 4.6C30.14 4.6 30.656 4.712 31.096 4.936C31.544 5.16 31.912 5.472 32.2 5.872C32.488 6.264 32.7 6.712 32.836 7.216C32.98 7.72 33.052 8.248 33.052 8.8C33.052 9.568 32.924 10.272 32.668 10.912C32.42 11.544 32.036 12.052 31.516 12.436C31.004 12.812 30.348 13 29.548 13H26.488C26.392 13 26.308 12.964 26.236 12.892C26.164 12.82 26.128 12.736 26.128 12.64V4.96C26.128 4.864 26.164 4.78 26.236 4.708C26.308 4.636 26.392 4.6 26.488 4.6H29.548ZM29.428 12.292C30.108 12.292 30.656 12.136 31.072 11.824C31.488 11.512 31.792 11.092 31.984 10.564C32.184 10.028 32.284 9.44 32.284 8.8C32.284 8.336 32.228 7.896 32.116 7.48C32.012 7.056 31.844 6.684 31.612 6.364C31.388 6.036 31.092 5.78 30.724 5.596C30.364 5.404 29.932 5.308 29.428 5.308H26.8L26.884 5.2V12.412L26.812 12.292H29.428ZM37.4388 13.12C36.8228 13.12 36.2788 12.988 35.8068 12.724C35.3348 12.46 34.9668 12.092 34.7028 11.62C34.4388 11.148 34.3068 10.596 34.3068 9.964C34.3068 9.284 34.4388 8.704 34.7028 8.224C34.9748 7.744 35.3228 7.376 35.7468 7.12C36.1788 6.856 36.6348 6.724 37.1148 6.724C37.4668 6.724 37.8068 6.788 38.1348 6.916C38.4708 7.036 38.7668 7.22 39.0228 7.468C39.2868 7.708 39.4948 8.004 39.6468 8.356C39.8068 8.708 39.8948 9.116 39.9108 9.58C39.9028 9.676 39.8628 9.76 39.7908 9.832C39.7188 9.896 39.6348 9.928 39.5388 9.928H34.7268L34.5828 9.28H39.3108L39.1548 9.424V9.184C39.1228 8.808 39.0028 8.488 38.7948 8.224C38.5868 7.96 38.3348 7.76 38.0388 7.624C37.7428 7.488 37.4348 7.42 37.1148 7.42C36.8748 7.42 36.6268 7.468 36.3708 7.564C36.1228 7.66 35.8948 7.812 35.6868 8.02C35.4868 8.22 35.3228 8.48 35.1948 8.8C35.0668 9.112 35.0028 9.484 35.0028 9.916C35.0028 10.388 35.0988 10.816 35.2908 11.2C35.4828 11.584 35.7588 11.888 36.1188 12.112C36.4868 12.336 36.9228 12.448 37.4268 12.448C37.7068 12.448 37.9588 12.408 38.1828 12.328C38.4068 12.248 38.6028 12.144 38.7708 12.016C38.9388 11.88 39.0788 11.74 39.1908 11.596C39.2788 11.524 39.3668 11.488 39.4548 11.488C39.5348 11.488 39.6028 11.52 39.6588 11.584C39.7228 11.648 39.7548 11.72 39.7548 11.8C39.7548 11.896 39.7148 11.98 39.6348 12.052C39.3948 12.34 39.0828 12.592 38.6988 12.808C38.3148 13.016 37.8948 13.12 37.4388 13.12ZM41.2493 6.736C41.3133 6.736 41.3773 6.756 41.4413 6.796C41.5053 6.836 41.5533 6.896 41.5853 6.976L43.6853 11.968L43.5293 12.064L45.6773 6.976C45.7413 6.816 45.8573 6.74 46.0253 6.748C46.1053 6.748 46.1813 6.776 46.2533 6.832C46.3253 6.88 46.3613 6.952 46.3613 7.048C46.3613 7.096 46.3533 7.136 46.3373 7.168C46.3293 7.192 46.3213 7.22 46.3133 7.252L43.9613 12.772C43.8973 12.916 43.7893 12.992 43.6373 13C43.5653 13.008 43.4933 12.992 43.4213 12.952C43.3573 12.904 43.3093 12.844 43.2773 12.772L40.9133 7.252C40.9053 7.236 40.8973 7.212 40.8893 7.18C40.8813 7.148 40.8773 7.116 40.8773 7.084C40.8773 6.996 40.9093 6.916 40.9733 6.844C41.0373 6.772 41.1293 6.736 41.2493 6.736ZM48.2849 4.6H52.6889C52.7849 4.6 52.8689 4.636 52.9409 4.708C53.0129 4.772 53.0489 4.856 53.0489 4.96C53.0489 5.064 53.0129 5.148 52.9409 5.212C52.8689 5.276 52.7849 5.308 52.6889 5.308H48.5609L48.6809 5.104V8.476L48.5489 8.32H52.1489C52.2449 8.32 52.3289 8.356 52.4009 8.428C52.4729 8.5 52.5089 8.584 52.5089 8.68C52.5089 8.784 52.4729 8.868 52.4009 8.932C52.3289 8.996 52.2449 9.028 52.1489 9.028H48.5729L48.6809 8.908V12.364L48.6209 12.292H52.6889C52.7849 12.292 52.8689 12.328 52.9409 12.4C53.0129 12.472 53.0489 12.556 53.0489 12.652C53.0489 12.756 53.0129 12.84 52.9409 12.904C52.8689 12.968 52.7849 13 52.6889 13H48.2849C48.1889 13 48.1049 12.964 48.0329 12.892C47.9609 12.82 47.9249 12.736 47.9249 12.64V4.96C47.9249 4.864 47.9609 4.78 48.0329 4.708C48.1049 4.636 48.1889 4.6 48.2849 4.6ZM59.5346 4.12C59.6386 4.12 59.7226 4.156 59.7866 4.228C59.8586 4.292 59.8946 4.376 59.8946 4.48V12.64C59.8946 12.736 59.8586 12.82 59.7866 12.892C59.7146 12.964 59.6306 13 59.5346 13C59.4306 13 59.3426 12.964 59.2706 12.892C59.2066 12.82 59.1746 12.736 59.1746 12.64V11.212L59.3786 11.044C59.3786 11.268 59.3186 11.504 59.1986 11.752C59.0786 11.992 58.9066 12.216 58.6826 12.424C58.4666 12.632 58.2106 12.8 57.9146 12.928C57.6266 13.056 57.3146 13.12 56.9786 13.12C56.4426 13.12 55.9586 12.98 55.5266 12.7C55.1026 12.42 54.7666 12.04 54.5186 11.56C54.2706 11.08 54.1466 10.532 54.1466 9.916C54.1466 9.308 54.2706 8.764 54.5186 8.284C54.7666 7.796 55.1026 7.416 55.5266 7.144C55.9506 6.864 56.4306 6.724 56.9666 6.724C57.2946 6.724 57.6066 6.784 57.9026 6.904C58.1986 7.024 58.4586 7.188 58.6826 7.396C58.9146 7.604 59.0946 7.844 59.2226 8.116C59.3586 8.38 59.4266 8.656 59.4266 8.944L59.1746 8.764V4.48C59.1746 4.384 59.2066 4.3 59.2706 4.228C59.3426 4.156 59.4306 4.12 59.5346 4.12ZM57.0386 12.448C57.4706 12.448 57.8466 12.34 58.1666 12.124C58.4946 11.9 58.7506 11.6 58.9346 11.224C59.1266 10.84 59.2226 10.404 59.2226 9.916C59.2226 9.436 59.1266 9.008 58.9346 8.632C58.7506 8.248 58.4946 7.948 58.1666 7.732C57.8386 7.508 57.4626 7.396 57.0386 7.396C56.6226 7.396 56.2466 7.508 55.9106 7.732C55.5826 7.948 55.3226 8.248 55.1306 8.632C54.9466 9.008 54.8546 9.436 54.8546 9.916C54.8546 10.396 54.9466 10.828 55.1306 11.212C55.3226 11.596 55.5826 11.9 55.9106 12.124C56.2466 12.34 56.6226 12.448 57.0386 12.448ZM62.4799 12.64C62.4799 12.736 62.4439 12.82 62.3719 12.892C62.2999 12.964 62.2159 13 62.1199 13C62.0159 13 61.9279 12.964 61.8559 12.892C61.7919 12.82 61.7599 12.736 61.7599 12.64V7.12C61.7599 7.024 61.7919 6.94 61.8559 6.868C61.9279 6.796 62.0159 6.76 62.1199 6.76C62.2239 6.76 62.3079 6.796 62.3719 6.868C62.4439 6.94 62.4799 7.024 62.4799 7.12V12.64ZM62.1199 5.956C61.9519 5.956 61.8239 5.92 61.7359 5.848C61.6559 5.768 61.6159 5.656 61.6159 5.512V5.392C61.6159 5.248 61.6599 5.14 61.7479 5.068C61.8439 4.988 61.9719 4.948 62.1319 4.948C62.2839 4.948 62.3999 4.988 62.4799 5.068C62.5679 5.14 62.6119 5.248 62.6119 5.392V5.512C62.6119 5.656 62.5679 5.768 62.4799 5.848C62.3999 5.92 62.2799 5.956 62.1199 5.956ZM63.9543 6.892H66.7503C66.8463 6.892 66.9263 6.928 66.9903 7C67.0543 7.064 67.0863 7.144 67.0863 7.24C67.0863 7.328 67.0543 7.404 66.9903 7.468C66.9263 7.532 66.8463 7.564 66.7503 7.564H63.9543C63.8583 7.564 63.7743 7.532 63.7023 7.468C63.6383 7.396 63.6063 7.316 63.6063 7.228C63.6063 7.132 63.6383 7.052 63.7023 6.988C63.7743 6.924 63.8583 6.892 63.9543 6.892ZM65.1903 5.2C65.2943 5.2 65.3783 5.236 65.4423 5.308C65.5143 5.38 65.5503 5.464 65.5503 5.56V11.584C65.5503 11.808 65.5783 11.976 65.6343 12.088C65.6983 12.2 65.7783 12.276 65.8743 12.316C65.9703 12.348 66.0663 12.364 66.1623 12.364C66.2263 12.364 66.2823 12.356 66.3303 12.34C66.3863 12.316 66.4463 12.304 66.5103 12.304C66.5823 12.304 66.6423 12.332 66.6903 12.388C66.7463 12.444 66.7743 12.516 66.7743 12.604C66.7743 12.716 66.7103 12.812 66.5823 12.892C66.4543 12.964 66.3023 13 66.1263 13C66.0543 13 65.9463 12.996 65.8023 12.988C65.6583 12.972 65.5103 12.928 65.3583 12.856C65.2063 12.776 65.0783 12.64 64.9743 12.448C64.8783 12.256 64.8303 11.98 64.8303 11.62V5.56C64.8303 5.464 64.8623 5.38 64.9263 5.308C64.9983 5.236 65.0863 5.2 65.1903 5.2ZM74.0702 9.928C74.0702 10.536 73.9382 11.084 73.6742 11.572C73.4102 12.052 73.0502 12.432 72.5942 12.712C72.1382 12.984 71.6182 13.12 71.0342 13.12C70.4662 13.12 69.9502 12.984 69.4862 12.712C69.0302 12.432 68.6662 12.052 68.3942 11.572C68.1302 11.084 67.9982 10.536 67.9982 9.928C67.9982 9.312 68.1302 8.764 68.3942 8.284C68.6662 7.804 69.0302 7.424 69.4862 7.144C69.9502 6.864 70.4662 6.724 71.0342 6.724C71.6182 6.724 72.1382 6.864 72.5942 7.144C73.0502 7.424 73.4102 7.804 73.6742 8.284C73.9382 8.764 74.0702 9.312 74.0702 9.928ZM73.3502 9.928C73.3502 9.44 73.2502 9.008 73.0502 8.632C72.8502 8.248 72.5742 7.948 72.2222 7.732C71.8782 7.508 71.4822 7.396 71.0342 7.396C70.6022 7.396 70.2102 7.508 69.8582 7.732C69.5062 7.948 69.2262 8.248 69.0182 8.632C68.8182 9.008 68.7182 9.44 68.7182 9.928C68.7182 10.416 68.8182 10.848 69.0182 11.224C69.2262 11.6 69.5062 11.9 69.8582 12.124C70.2102 12.34 70.6022 12.448 71.0342 12.448C71.4822 12.448 71.8782 12.34 72.2222 12.124C72.5742 11.9 72.8502 11.6 73.0502 11.224C73.2502 10.848 73.3502 10.416 73.3502 9.928ZM75.9603 13C75.8483 13 75.7603 12.964 75.6963 12.892C75.6323 12.82 75.6003 12.736 75.6003 12.64V7.264C75.6003 7.168 75.6323 7.084 75.6963 7.012C75.7683 6.94 75.8563 6.904 75.9603 6.904C76.0643 6.904 76.1483 6.94 76.2123 7.012C76.2843 7.084 76.3203 7.168 76.3203 7.264V9.064L76.1403 9.1C76.1643 8.82 76.2323 8.544 76.3443 8.272C76.4643 7.992 76.6243 7.736 76.8243 7.504C77.0243 7.272 77.2603 7.084 77.5323 6.94C77.8123 6.796 78.1243 6.724 78.4683 6.724C78.6123 6.724 78.7523 6.756 78.8883 6.82C79.0243 6.876 79.0923 6.972 79.0923 7.108C79.0923 7.228 79.0603 7.32 78.9963 7.384C78.9323 7.448 78.8563 7.48 78.7683 7.48C78.6963 7.48 78.6163 7.46 78.5283 7.42C78.4483 7.38 78.3403 7.36 78.2043 7.36C77.9803 7.36 77.7563 7.428 77.5323 7.564C77.3083 7.692 77.1043 7.868 76.9203 8.092C76.7363 8.316 76.5883 8.568 76.4763 8.848C76.3723 9.12 76.3203 9.396 76.3203 9.676V12.64C76.3203 12.736 76.2843 12.82 76.2123 12.892C76.1403 12.964 76.0563 13 75.9603 13ZM79.0596 13C78.9236 13 78.8196 12.956 78.7476 12.868C78.6756 12.78 78.6396 12.668 78.6396 12.532V12.28C78.6396 12.136 78.6756 12.024 78.7476 11.944C78.8196 11.864 78.9236 11.824 79.0596 11.824H79.1436C79.2796 11.824 79.3836 11.864 79.4556 11.944C79.5276 12.024 79.5636 12.136 79.5636 12.28V12.532C79.5636 12.668 79.5276 12.78 79.4556 12.868C79.3836 12.956 79.2796 13 79.1436 13H79.0596ZM81.8276 12.64C81.8276 12.736 81.7916 12.82 81.7196 12.892C81.6476 12.964 81.5636 13 81.4676 13C81.3636 13 81.2756 12.964 81.2036 12.892C81.1396 12.82 81.1076 12.736 81.1076 12.64V7.12C81.1076 7.024 81.1396 6.94 81.2036 6.868C81.2756 6.796 81.3636 6.76 81.4676 6.76C81.5716 6.76 81.6556 6.796 81.7196 6.868C81.7916 6.94 81.8276 7.024 81.8276 7.12V12.64ZM81.4676 5.956C81.2996 5.956 81.1716 5.92 81.0836 5.848C81.0036 5.768 80.9636 5.656 80.9636 5.512V5.392C80.9636 5.248 81.0076 5.14 81.0956 5.068C81.1916 4.988 81.3196 4.948 81.4796 4.948C81.6316 4.948 81.7476 4.988 81.8276 5.068C81.9156 5.14 81.9596 5.248 81.9596 5.392V5.512C81.9596 5.656 81.9156 5.768 81.8276 5.848C81.7476 5.92 81.6276 5.956 81.4676 5.956ZM89.41 9.928C89.41 10.536 89.278 11.084 89.014 11.572C88.75 12.052 88.39 12.432 87.934 12.712C87.478 12.984 86.958 13.12 86.374 13.12C85.806 13.12 85.29 12.984 84.826 12.712C84.37 12.432 84.006 12.052 83.734 11.572C83.47 11.084 83.338 10.536 83.338 9.928C83.338 9.312 83.47 8.764 83.734 8.284C84.006 7.804 84.37 7.424 84.826 7.144C85.29 6.864 85.806 6.724 86.374 6.724C86.958 6.724 87.478 6.864 87.934 7.144C88.39 7.424 88.75 7.804 89.014 8.284C89.278 8.764 89.41 9.312 89.41 9.928ZM88.69 9.928C88.69 9.44 88.59 9.008 88.39 8.632C88.19 8.248 87.914 7.948 87.562 7.732C87.218 7.508 86.822 7.396 86.374 7.396C85.942 7.396 85.55 7.508 85.198 7.732C84.846 7.948 84.566 8.248 84.358 8.632C84.158 9.008 84.058 9.44 84.058 9.928C84.058 10.416 84.158 10.848 84.358 11.224C84.566 11.6 84.846 11.9 85.198 12.124C85.55 12.34 85.942 12.448 86.374 12.448C86.822 12.448 87.218 12.34 87.562 12.124C87.914 11.9 88.19 11.6 88.39 11.224C88.59 10.848 88.69 10.416 88.69 9.928Z" fill="white"/>
</svg>
